Coordinates
version=1
nRows=7
nColumns=46
inDegrees=yes

Units are S.I. units (second, meters, Newtons, ...)
Angles are in degrees.

endheader
time	pelvis_tilt	pelvis_list	pelvis_rotation	pelvis_tx	pelvis_ty	pelvis_tz	bb_angle	bb_tx	bb_ty	bb_tz	hip_flexion_r	hip_adduction_r	hip_rotation_r	knee_angle_r	knee_angle_r_beta	ankle_angle_r	subtalar_angle_r	mtp_angle_r	crank_angle_r	hip_flexion_l	hip_adduction_l	hip_rotation_l	knee_angle_l	knee_angle_l_beta	ankle_angle_l	subtalar_angle_l	mtp_angle_l	crank_angle_l	lumbar_extension	lumbar_bending	lumbar_rotation	arm_flex_r	arm_add_r	arm_rot_r	elbow_flex_r	pro_sup_r	wrist_flex_r	wrist_dev_r	arm_flex_l	arm_add_l	arm_rot_l	elbow_flex_l	pro_sup_l	wrist_flex_l	wrist_dev_l
      0.00000000	    -26.38945235	     -6.32636648	     -6.57062366	      0.09534117	      1.11001025	     -0.22942171	      0.00000000	      0.50000000	      0.00000000	      0.25000000	     87.94720732	      6.56113211	      0.85227287	     81.52588123	      1.42289505	     28.92343873	    -10.61518085	      0.00000000	      0.00000000	     31.04097190	    -12.45412013	     -4.24946306	     13.09693717	      0.22858468	     22.78994288	      6.61710610	      0.00000000	      0.00000000	    -43.86867579	      3.25467693	      7.86829608	     89.59818214	     -5.45181218	     42.57251300	     36.61874549	     27.54444022	      0.00000000	      0.00000000	     89.56896388	    -11.43134687	     39.31637994	     31.95487697	     27.19514077	      0.00000000	      0.00000000
      0.00500000	    -26.27801342	     -6.26280229	     -6.57564721	      0.09532450	      1.11025755	     -0.22957289	      0.00000000	      0.50000000	      0.00000000	      0.25000000	     87.81546481	      6.60363894	      0.99028987	     81.51745318	      1.42274796	     28.95759869	    -10.69352483	      0.00000000	      0.00000000	     30.83544077	    -12.34555378	     -4.15625599	     12.91378480	      0.22538806	     22.62887720	      6.42321187	      0.00000000	      0.00000000	    -44.03927093	      3.18733631	      7.79811029	     89.59758878	     -5.40296316	     42.15254310	     36.58588123	     28.64047597	      0.00000000	      0.00000000	     89.56141574	    -11.47351446	     38.64635165	     32.14571140	     28.30539515	      0.00000000	      0.00000000
      0.01000000	    -26.36476283	     -6.27567639	     -6.64631922	      0.09528076	      1.11012054	     -0.22950685	      0.00000000	      0.50000000	      0.00000000	      0.25000000	     87.89084868	      6.70873902	      1.00853240	     81.47989018	      1.42209236	     28.95406113	    -10.74461602	      0.00000000	      0.00000000	     30.97125861	    -12.40305533	     -4.18941673	     13.04440875	      0.22766788	     22.70701778	      6.40401917	      0.00000000	      0.00000000	    -43.91917775	      3.19006304	      7.77958892	     89.60197355	     -4.95589792	     41.54115825	     35.57557893	     30.91990560	      0.00000000	      0.00000000	     89.55710389	    -11.19666978	     37.64705638	     31.29107443	     30.42274097	      0.00000000	      0.00000000
      0.01500000	    -25.74401936	     -5.60276217	     -6.58177854	      0.09647395	      1.11144220	     -0.23142089	      0.00000000	      0.50000000	      0.00000000	      0.25000000	     87.25773127	      6.25626991	      1.54180926	     81.65018521	      1.42506457	     29.05570695	    -10.43175743	      0.00000000	      0.00000000	     30.38429834	    -11.68304265	     -5.09412366	     13.39653777	      0.23381369	     22.98281456	      6.63189877	      0.00000000	      0.00000000	    -44.55527597	      2.59781821	      7.40986637	     89.59831368	     -5.82283063	     42.24776983	     36.47525302	     31.01193239	      0.00000000	      0.00000000	     89.56109600	    -11.70892986	     39.50529240	     32.15215843	     30.58153753	      0.00000000	      0.00000000
      0.02000000	    -25.70757856	     -5.45756619	     -6.38048240	      0.09598188	      1.11168713	     -0.23258986	      0.00000000	      0.50000000	      0.00000000	      0.25000000	     87.18535957	      6.14261560	      1.90677260	     81.63278190	      1.42476082	     29.06875322	    -10.66075455	      0.00000000	      0.00000000	     30.73281610	    -11.51939090	     -5.29724267	     14.13738966	      0.24674400	     23.50640163	      6.31160770	      0.00000000	      0.00000000	    -44.59429345	      2.64428679	      7.23900494	     89.59567736	     -5.89655359	     42.19040724	     36.45604851	     30.98673622	      0.00000000	      0.00000000	     89.56093680	    -11.64539016	     39.75011077	     32.35155689	     30.61639565	      0.00000000	      0.00000000
      0.02500000	    -25.65892301	     -5.73723830	     -6.43149603	      0.09637290	      1.11137026	     -0.23199661	      0.00000000	      0.50000000	      0.00000000	      0.25000000	     87.10841052	      6.28724229	      1.72406527	     81.55291804	      1.42336693	     29.05024092	    -10.67448715	      0.00000000	      0.00000000	     30.42324309	    -11.60010320	     -4.70250397	     13.54344234	      0.23637766	     23.01111525	      6.32582301	      0.00000000	      0.00000000	    -44.65212205	      2.79050018	      7.36558732	     89.60846315	     -5.92729327	     42.32847259	     36.54850501	     30.98809284	      0.00000000	      0.00000000	     89.56869518	    -11.40785103	     39.90031857	     32.16881185	     30.56057870	      0.00000000	      0.00000000
      0.03000000	    -25.56267325	     -5.75044245	     -6.34311776	      0.09646207	      1.11151003	     -0.23239984	      0.00000000	      0.50000000	      0.00000000	      0.25000000	     86.97630704	      6.24193608	      1.77064031	     81.52577479	      1.42289320	     29.04555252	    -10.85546117	      0.00000000	      0.00000000	     30.31698659	    -11.49648095	     -4.41442716	     13.50044518	      0.23562722	     22.85880013	      6.16118913	      0.00000000	      0.00000000	    -44.71127953	      2.84689718	      7.42158395	     89.61005794	     -6.04734280	     42.23302365	     36.12997374	     32.61595234	      0.00000000	      0.00000000	     89.58242967	    -10.81616106	     39.23665651	     31.23850034	     31.90503652	      0.00000000	      0.00000000
